# xmcd
#
# Track frame offsets:
#	150
#	14772
#	28117
#	44732
#	56935
#	70077
#	82854
#	96642
#	111517
#	126455
#	136832
#	147725
#	161257
#	173577
#	185530
#	197050
#	210645
#	228147
#	241230
#	252090
#	263397
#	277217
#	290145
#	301620
#
# Disc length: 4284 seconds
#
# Revision: 0
# Processed by: cddbd v1.5.1PL0 Copyright (c) Steve Scherf et al.
# Submitted via: EasyCDDAExtractor 8.2.1.1
#
DISCID=6b10ba18
DTITLE=Glen Campbell - The Ultimate Collection
DYEAR=1996
DGENRE=Country
TTITLE0=Rhinestone Cowboy
TTITLE1=Southern Nights
TTITLE2=Both Sides Now
TTITLE3=By The Time I Get To Phoenix
TTITLE4=Gentle On My Mind
TTITLE5=Too Many Mornings
TTITLE6=Wichita Lineman
TTITLE7=One Last Time
TTITLE8=Don't Pull Yor Love - Then You Can Tell Me Goodbye
TTITLE9=Reason To Believe
TTITLE10=It's Only Make Believe
TTITLE11=Honey Come Back
TTITLE12=Give Me Back That Old Familiar Feeling
TTITLE13=Galveston
TTITLE14=Dreams Of The Everyday Housewife
TTITLE15=Mary In The Morning
TTITLE16=The Last Thing On My Mind
TTITLE17=Where's The Playground, Suzie
TTITLE18=Try A Little Kindness
TTITLE19=True Grit
TTITLE20=Country Boy (You've Got Your Feet In L.A.)
TTITLE21=I Knew Jesus (Before He Was A Star)
TTITLE22=All I Have To Do Is Dream (With Bobby Gentry)
TTITLE23=Amazing Grace
EXTD=
EXTT0=
EXTT1=
EXTT2=
EXTT3=
EXTT4=
EXTT5=
EXTT6=
EXTT7=
EXTT8=
EXTT9=
EXTT10=
EXTT11=
EXTT12=
EXTT13=
EXTT14=
EXTT15=
EXTT16=
EXTT17=
EXTT18=
EXTT19=
EXTT20=
EXTT21=
EXTT22=
EXTT23=
PLAYORDER=
